# Blender 4.4.3
# www.blender.org
mtllib Iceberg3.mtl
o Cylinder
v 0.004046 -0.527789 -0.937461
v 0.002141 0.444732 -0.688121
v 0.309017 -0.542266 -0.951057
v 0.236147 0.447782 -0.692800
v 0.587785 -0.542266 -0.809017
v 0.319414 0.433275 -0.593937
v 0.593186 -0.467272 -0.453253
v 0.576518 0.472356 -0.475643
v 0.827134 -0.504344 -0.262046
v 0.581222 0.425637 -0.158544
v 0.999817 -0.542213 -0.000011
v 0.556719 0.367092 -0.101173
v 0.851868 -0.511974 0.270693
v 0.452638 0.341719 -0.058149
v 0.718615 -0.510290 0.523076
v 0.357516 0.388041 0.352155
v 0.543702 -0.521622 0.751021
v 0.298405 -0.528928 0.907495
v 0.137494 0.366743 0.497383
v 0.001508 -0.505319 0.867542
v -0.117358 0.331371 0.369149
v -0.285200 -0.521461 0.870599
v -0.263261 0.366057 0.534106
v -0.456537 -0.485739 0.646483
v -0.259065 0.380072 0.431249
v -0.778550 -0.510095 0.398239
v -0.469121 0.401895 0.235586
v -0.984414 -0.537880 -0.000480
v -0.632587 0.423065 -0.082191
v -0.938565 -0.538464 -0.303976
v -0.689260 0.441632 -0.283884
v -0.734846 -0.515621 -0.524092
v -0.576640 0.454169 -0.416243
v -0.567040 -0.530409 -0.771504
v -0.407692 0.442726 -0.555457
v -0.286132 -0.505901 -0.806549
v -0.242901 0.450776 -0.665503
v 0.278378 0.412235 -0.661178
v 0.591035 0.353802 -0.082628
v 0.572118 0.325658 -0.129161
v 0.473958 0.365888 0.158760
v 0.421054 -0.525275 0.829258
v 0.219434 -0.050648 0.771785
v 0.149957 -0.517123 0.887519
v -0.164251 -0.519430 0.887916
v -0.282066 -0.045466 0.830635
v -0.363899 -0.508509 0.775411
v -0.244743 0.386795 0.509397
v -0.392227 -0.023130 0.582967
v -0.566178 -0.490490 0.554554
v -0.478477 -0.035138 0.365463
v -0.693491 -0.034685 0.207519
v -0.911803 -0.523760 0.136628
v -0.862850 -0.036722 -0.028913
v -0.961489 -0.538172 -0.152228
v -0.620524 0.420852 -0.235616
v -0.901832 -0.011664 -0.301301
v -0.627893 0.449173 -0.324692
v -0.487926 0.394022 -0.537636
v -0.882341 -0.024193 -0.165107
v -0.436999 -0.026788 0.442127
v -0.355223 -0.033452 0.732038
v 0.237155 0.418493 -0.703141
v 0.481443 0.469149 -0.562651
v 0.584887 0.002554 -0.464470
v 0.710160 -0.485808 -0.357650
v 0.660563 0.477982 -0.347223
v 0.791376 -0.008429 -0.243554
v 0.913475 -0.523278 -0.131029
v 0.599403 0.372015 -0.131184
v 0.901128 -0.037313 -0.031037
v 0.925843 -0.527093 0.135341
v 0.612625 0.335961 -0.160986
v 0.744511 -0.044091 0.169293
v 0.785242 -0.511132 0.396885
v 0.466652 0.331803 0.061430
v 0.497291 -0.052055 0.530719
v 0.631159 -0.515956 0.637049
v 0.130145 0.336659 0.467161
v -0.313146 0.345709 0.386501
v 0.321940 0.408243 -0.621873
v 0.584558 0.336803 -0.035088
v 0.534182 0.317389 -0.094500
v 0.179938 0.188429 0.703777
v 0.688132 -0.002938 -0.354012
v 0.183113 0.383979 -0.293502
v 0.204626 0.394501 -0.410431
v 0.153903 0.388559 -0.319009
v 0.035149 0.407179 -0.422706
v -0.212166 0.381036 0.346045
v -0.245884 0.437727 -0.463086
v -0.151797 0.391111 0.102374
v -0.138718 0.382545 0.212609
v -0.078853 0.383776 0.103849
v -0.257524 0.386811 0.326708
v -0.393755 0.396523 0.268041
v -0.576832 0.415381 -0.099635
v -0.340467 0.403494 0.096245
v -0.319445 0.391225 0.300042
v -0.516545 0.407833 0.087992
v -0.365525 0.418118 -0.146676
v -0.250164 0.419008 -0.172719
v -0.252817 0.407400 0.007341
v -0.186539 0.413864 -0.190455
v -0.217232 0.433965 -0.449148
v 0.052692 0.394523 -0.257145
v 0.132024 0.388109 -0.279260
v 0.367786 0.420338 -0.314281
v 0.263243 0.399756 -0.302518
v 0.045910 0.399416 -0.321148
v 0.063533 0.386702 -0.154829
v 0.109392 0.352250 0.273383
v 0.316136 0.339577 0.164200
v 0.260248 0.354465 0.029818
v 0.091568 0.365641 0.106945
v 0.230727 0.338237 0.303323
v -0.353009 0.410813 -0.025338
v -0.254188 0.401407 0.100304
v -0.159869 0.396397 0.034337
v -0.057032 0.384224 0.064206
v -0.217713 0.209833 -0.384615
vn -0.0276 0.2493 -0.9680
vn -0.0275 0.2493 -0.9680
vn 0.5359 0.2818 -0.7959
vn 0.6752 -0.0055 -0.7376
vn 0.9668 0.2540 -0.0281
vn 0.8876 0.2567 -0.3825
vn 0.8876 0.2567 -0.3824
vn 0.7108 0.4185 0.5654
vn 0.7127 0.4183 0.5631
vn 0.7140 0.4133 0.5651
vn 0.8013 0.4301 0.4159
vn 0.5044 0.3118 0.8052
vn -0.4838 0.3658 0.7950
vn -0.1426 0.0837 0.9862
vn -0.9072 0.3642 0.2107
vn -0.7766 0.4074 0.4805
vn -0.7780 0.4374 0.4510
vn -0.7779 0.4375 0.4511
vn -0.5544 0.2900 -0.7801
vn -0.7314 0.2163 -0.6468
vn -0.7314 0.2164 -0.6467
vn -0.7314 0.2163 -0.6467
vn -0.3165 0.2046 -0.9263
vn -0.3164 0.2046 -0.9263
vn -0.2608 0.1968 -0.9451
vn -0.2609 0.1969 -0.9451
vn 0.0028 -1.0000 0.0062
vn 0.0028 -1.0000 0.0063
vn -0.6437 0.1726 -0.7456
vn -0.6437 0.1727 -0.7455
vn -0.6437 0.1726 -0.7455
vn -0.9938 0.1106 -0.0071
vn -0.9938 0.1106 -0.0072
vn -0.9810 0.1938 -0.0035
vn -0.8755 0.4816 0.0396
vn -0.8755 0.4815 0.0396
vn -0.8160 0.2579 0.5174
vn -0.8510 0.3195 0.4168
vn -0.5435 0.3945 0.7410
vn -0.5737 0.2446 0.7817
vn -0.6442 0.3958 0.6545
vn -0.6443 0.3958 0.6544
vn -0.8072 0.2685 0.5257
vn -0.8071 0.2685 0.5258
vn -0.7433 0.3541 0.5676
vn -0.7433 0.3541 0.5675
vn -0.8944 0.1188 0.4312
vn -0.8944 0.1188 0.4313
vn -0.7815 0.0641 0.6206
vn -0.7815 0.0641 0.6207
vn -0.7893 0.4087 0.4583
vn -0.7892 0.4087 0.4583
vn 0.6059 0.4013 0.6869
vn -0.1091 0.2546 0.9609
vn 0.5860 0.4497 0.6741
vn 0.7360 0.3458 0.5820
vn 0.6854 0.0569 -0.7259
vn 0.6855 0.0569 -0.7259
vn 0.6841 0.0160 -0.7292
vn 0.7867 0.0269 -0.6168
vn 0.8601 0.1742 -0.4795
vn 0.8600 0.1742 -0.4795
vn 0.8600 0.1743 -0.4796
vn -0.8759 0.1546 0.4571
vn 0.0984 0.9815 0.1645
vn -0.0766 0.9932 0.0877
vn -0.1874 0.9597 0.2096
vn -0.2523 0.9666 0.0456
vn -0.1628 0.9554 0.2464
vn -0.2089 0.9687 0.1340
vn -0.1266 0.9076 0.4004
vn -0.1266 0.9075 0.4004
vn -0.0384 0.9817 0.1865
vn -0.1847 0.9646 0.1882
vn -0.0120 0.9943 0.1061
vn 0.0317 0.9963 0.0793
vn 0.0786 0.9923 0.0961
vn 0.0609 0.9879 0.1428
vn 0.0415 0.9954 0.0867
vn -0.0518 0.9982 -0.0308
vn 0.0480 0.9968 0.0640
vn 0.0028 0.9981 0.0610
vn 0.0514 0.9966 0.0638
vn 0.0105 0.9984 0.0562
vn 0.0566 0.9964 0.0636
vn 0.0231 0.9983 0.0543
vn 0.0610 0.9961 0.0637
vn -0.1012 0.9675 0.2318
vn -0.0672 0.9896 0.1268
vn -0.3218 0.8930 0.3145
vn 0.2236 0.9547 0.1965
vn 0.4729 0.8632 0.1768
vn 0.2401 0.9582 0.1554
vn 0.2769 0.9512 0.1359
vn 0.1195 0.9887 0.0907
vn -0.0181 0.9988 0.0463
vn 0.0751 0.9942 0.0764
vn -0.1039 0.9931 -0.0550
vn -0.2386 0.9560 -0.1709
vn -0.0912 0.9833 -0.1574
vn -0.0232 0.9986 -0.0477
vn 0.0984 0.9928 0.0681
vn 0.0985 0.9929 0.0665
vn 0.0985 0.9930 0.0655
vn 0.0988 0.9929 0.0661
vn 0.0991 0.9929 0.0665
vn 0.0988 0.9929 0.0660
vn 0.1012 0.9926 0.0674
vn 0.1017 0.9925 0.0683
vn 0.0989 0.9929 0.0662
vn -0.0534 0.9629 0.2645
vn 0.0791 0.9967 0.0203
vn 0.0795 0.9963 0.0332
vn 0.0930 0.9842 0.1507
vn 0.1354 0.9908 -0.0036
vn 0.0388 0.9958 0.0835
vn 0.0618 0.9880 0.1415
vn 0.0799 0.9518 0.2960
vn -0.2766 0.8704 -0.4073
vn 0.5358 0.2818 -0.7959
vn 0.5358 0.2819 -0.7959
vn 0.8882 0.2528 -0.3835
vn 0.8872 0.2542 -0.3852
vn 0.8854 0.2560 -0.3879
vn 0.8845 0.2574 -0.3890
vn 0.8880 0.2533 -0.3838
vn 0.8891 0.2587 -0.3777
vn 0.7108 0.4191 0.5648
vn 0.7107 0.4200 0.5643
vn 0.7125 0.4192 0.5627
vn 0.7108 0.4185 0.5653
vn 0.7108 0.4186 0.5652
vn -0.4839 0.3658 0.7950
vn -0.4838 0.3659 0.7950
vn -0.3165 0.2046 -0.9262
vn 0.0029 -1.0000 0.0063
vn -0.9810 0.1938 -0.0034
vn -0.8159 0.2579 0.5174
vn -0.7892 0.4088 0.4583
vn 0.6058 0.4013 0.6870
vn 0.5859 0.4497 0.6741
vn 0.8600 0.1742 -0.4796
vn 0.8601 0.1743 -0.4795
vn -0.0265 0.9926 0.1189
vn -0.1266 0.9075 0.4005
vn 0.0207 0.9953 0.0950
vn -0.0913 0.9833 -0.1574
vn -0.2767 0.8704 -0.4073
vt 1.000000 0.500000
vt 0.950000 1.000000
vt 0.950000 0.500000
vt 0.937500 1.000000
vt 0.925000 1.000000
vt 0.850000 0.750000
vt 0.875000 1.000000
vt 0.850000 1.000000
vt 0.825000 0.750000
vt 0.800000 1.000000
vt 0.800000 0.750000
vt 0.775000 1.000000
vt 0.762500 1.000000
vt 0.750000 1.000000
vt 0.725000 1.000000
vt 0.700000 0.750000
vt 0.675000 1.000000
vt 0.650000 0.750000
vt 0.575000 0.500000
vt 0.550000 0.750000
vt 0.550000 0.500000
vt 0.500000 1.000000
vt 0.500000 0.500000
vt 0.475000 0.500000
vt 0.450000 0.750000
vt 0.450000 0.500000
vt 0.425000 1.000000
vt 0.400000 0.750000
vt 0.425000 0.750000
vt 0.275000 0.750000
vt 0.250000 1.000000
vt 0.250000 0.750000
vt 0.225000 0.750000
vt 0.200000 1.000000
vt 0.200000 0.750000
vt 0.175000 1.000000
vt 0.125000 1.000000
vt 0.100000 1.000000
vt 0.100000 0.500000
vt 0.050000 0.500000
vt -0.000000 1.000000
vt -0.000000 0.500000
vt 0.750000 0.010000
vt 0.608932 0.055836
vt 0.944164 0.108932
vt 0.150000 1.000000
vt 0.150000 0.500000
vt 0.200000 0.500000
vt 0.225000 0.500000
vt 0.250000 0.500000
vt 0.275000 0.500000
vt 0.300000 0.500000
vt 0.350000 0.500000
vt 0.350000 0.750000
vt 0.325000 0.750000
vt 0.325000 1.000000
vt 0.375000 0.500000
vt 0.400000 0.500000
vt 0.387500 1.000000
vt 0.375000 1.000000
vt 0.375000 0.750000
vt 0.425000 0.500000
vt 0.450000 1.000000
vt 0.525000 0.500000
vt 0.600000 0.750000
vt 0.625000 0.500000
vt 0.600000 0.500000
vt 0.650000 0.500000
vt 0.625000 0.750000
vt 0.825000 0.500000
vt 0.800000 0.500000
vt 0.850000 0.500000
vt 0.825000 1.000000
vt 0.900000 1.000000
vt 0.350000 1.000000
vt 0.324164 0.478254
vt 0.331144 0.369677
vt 0.357616 0.461209
vt 1.000000 1.000000
vt 0.389207 0.333576
vt 0.391068 0.444164
vt 0.461209 0.357616
vt 0.444164 0.391068
vt 0.417616 0.417616
vt 0.487063 0.231459
vt 0.490000 0.250000
vt 0.481190 0.305623
vt 0.478254 0.175836
vt 0.355244 0.327401
vt 0.327449 0.323718
vt 0.315891 0.334192
vt 0.270007 0.377354
vt 0.250000 0.490000
vt 0.175836 0.478254
vt 0.108932 0.444164
vt 0.170204 0.398181
vt 0.122780 0.266676
vt 0.167640 0.277701
vt 0.126127 0.214246
vt 0.165574 0.201811
vt 0.129427 0.160812
vt 0.163627 0.162661
vt 0.118676 0.087127
vt 0.145759 0.079737
vt 0.095658 0.069110
vt 0.108932 0.055836
vt 0.142384 0.038791
vt 0.175836 0.021746
vt 0.250000 0.010000
vt 0.174680 0.066770
vt 0.212707 0.117535
vt 0.357616 0.038791
vt 0.326970 0.107714
vt 0.387280 0.114786
vt 0.452686 0.125658
vt 0.469731 0.159110
vt 0.409366 0.155130
vt 0.378026 0.195852
vt 0.309459 0.318649
vt 0.276578 0.336398
vt 0.180443 0.391949
vt 0.191987 0.284937
vt 0.203170 0.192131
vt 0.206531 0.164125
vt 0.237778 0.165007
vt 0.310963 0.169276
vt 0.280968 0.310693
vt 0.097717 0.087068
vt 0.060658 0.159620
vt 0.034352 0.251007
vt 0.015873 0.287082
vt 0.010000 0.250000
vt 0.082384 0.082384
vt 0.038791 0.357616
vt 0.021746 0.324164
vt 0.055836 0.391068
vt 0.900000 0.500000
vt 0.912500 1.000000
vt 0.775000 0.500000
vt 0.750000 0.750000
vt 0.787500 1.000000
vt 0.750000 0.500000
vt 0.725000 0.500000
vt 0.700000 0.500000
vt 0.712500 1.000000
vt 0.700000 1.000000
vt 0.737500 1.000000
vt 0.675000 0.500000
vt 0.687500 1.000000
vt 0.650000 1.000000
vt 0.550000 0.875000
vt 0.550000 1.000000
vt 0.400000 1.000000
vt 0.275000 1.000000
vt 0.225000 1.000000
vt 0.050000 1.000000
vt 0.675836 0.478254
vt 0.750000 0.490000
vt 0.944164 0.391068
vt 0.824164 0.478254
vt 0.891068 0.444164
vt 0.961209 0.357616
vt 0.961209 0.142384
vt 0.978254 0.324164
vt 0.978254 0.175836
vt 0.984127 0.287082
vt 0.990000 0.250000
vt 0.984127 0.212918
vt 0.555836 0.391068
vt 0.608932 0.444164
vt 0.515873 0.287082
vt 0.521746 0.324164
vt 0.515873 0.212918
vt 0.510000 0.250000
vt 0.582384 0.082384
vt 0.521746 0.175836
vt 0.675836 0.021746
vt 0.642384 0.038791
vt 0.712918 0.015873
vt 0.917616 0.082384
vt 0.891068 0.055836
vt 0.857616 0.038791
vt 0.787082 0.015873
vt 0.824164 0.021746
vt 0.600000 1.000000
vt 0.575000 1.000000
vt 0.374342 0.452686
vt 0.478254 0.324164
vt 0.484127 0.212918
vt 0.481190 0.194377
vt 0.484127 0.287082
vt 0.324164 0.021746
vt 0.461209 0.142384
vt 0.082384 0.417616
s 1
f 1/1/1 4/2/2 3/3/2
f 4/2/3 63/4/3 38/5/3
f 65/6/4 64/7/4 8/8/4
f 85/9/5 10/10/5 68/11/5
f 39/12/6 82/13/6 12/14/7
f 40/15/8 74/16/9 12/14/10
f 41/17/11 77/18/11 74/16/11
f 42/19/12 43/20/12 18/21/12
f 21/22/13 20/23/13 43/20/13
f 45/24/14 46/25/14 22/26/14
f 48/27/15 49/28/15 62/29/15
f 52/30/16 29/31/16 54/32/16
f 60/33/17 31/34/18 57/35/17
f 57/35/19 31/34/19 58/36/19
f 59/37/20 35/38/21 34/39/22
f 35/38/23 36/40/24 34/39/24
f 36/40/25 2/41/25 1/42/26
f 20/43/27 24/44/28 15/45/27
f 57/35/29 33/46/30 32/47/31
f 60/33/32 30/48/33 55/49/33
f 54/32/34 55/49/34 28/50/34
f 29/31/35 60/33/36 54/32/35
f 53/51/37 54/32/37 28/50/37
f 26/52/38 52/30/38 53/51/38
f 26/53/39 51/54/39 52/55/39
f 51/54/40 27/56/40 52/55/40
f 50/57/41 51/54/42 26/53/41
f 49/28/43 50/57/44 24/58/44
f 80/59/45 27/60/45 61/61/46
f 62/29/47 24/58/48 47/62/48
f 46/25/49 47/62/50 22/26/49
f 23/63/51 62/29/52 46/25/52
f 21/22/53 23/63/53 46/25/53
f 18/21/54 43/20/54 44/64/54
f 43/20/55 42/19/55 77/65/55
f 78/66/56 77/65/56 17/67/56
f 15/68/56 77/69/56 78/66/56
f 66/70/57 68/11/58 9/71/57
f 7/72/59 85/9/59 66/70/59
f 65/6/60 67/73/60 85/9/60
f 6/74/61 64/7/62 65/6/63
f 61/61/64 27/75/64 51/54/64
f 4/76/65 87/77/66 38/78/65
f 1/1/1 2/79/2 4/2/2
f 87/77/66 108/80/67 6/81/68
f 6/81/68 108/80/67 67/82/69
f 6/81/68 8/83/70 64/84/70
f 73/85/71 12/86/71 70/87/72
f 14/88/73 108/80/67 109/89/74
f 14/88/73 109/89/74 86/90/75
f 86/90/75 87/77/66 88/91/76
f 87/77/66 89/92/77 88/91/76
f 89/92/77 2/93/78 37/94/79
f 37/94/79 35/95/80 91/96/81
f 91/96/81 101/97/82 102/98/83
f 102/98/83 117/99/84 103/100/85
f 103/100/85 98/101/86 118/102/87
f 118/102/87 99/103/88 95/104/89
f 95/104/89 80/105/90 25/106/91
f 48/107/92 23/108/92 21/109/93
f 90/110/94 21/109/93 93/111/95
f 21/109/93 79/112/96 112/113/97
f 112/113/97 79/112/96 116/114/98
f 116/114/98 79/112/96 16/115/99
f 76/116/100 14/88/73 113/117/101
f 113/117/101 14/88/73 114/118/102
f 114/118/102 86/90/75 107/119/103
f 107/119/103 86/90/75 88/91/76
f 88/91/76 110/120/104 107/119/103
f 89/92/77 105/121/104 110/120/104
f 105/121/104 37/94/79 91/96/81
f 105/121/104 102/98/83 104/122/105
f 104/122/105 103/100/85 119/123/106
f 119/123/106 118/102/87 92/124/107
f 95/104/89 90/110/94 93/111/95
f 92/124/107 93/111/95 94/125/108
f 94/125/108 93/111/95 115/126/109
f 106/127/110 104/122/105 119/123/106
f 106/127/110 107/119/103 110/120/104
f 104/122/105 110/120/104 105/121/104
f 113/117/101 116/114/98 16/115/99
f 90/110/94 95/104/89 25/106/91
f 80/105/90 99/103/88 96/128/111
f 96/128/111 98/101/86 100/129/112
f 100/129/112 117/99/84 97/130/113
f 97/130/113 117/99/84 101/97/82
f 97/130/113 101/97/82 35/95/80
f 35/95/80 56/131/114 97/130/113
f 56/131/114 29/132/115 97/130/113
f 29/132/115 27/133/116 100/129/112
f 27/133/116 80/105/90 96/128/111
f 27/133/116 96/128/111 100/129/112
f 29/132/115 100/129/112 97/130/113
f 56/131/114 58/134/117 31/135/118
f 35/95/80 33/136/119 58/134/117
f 5/137/120 3/3/120 81/138/120
f 3/3/120 4/2/3 38/5/120
f 81/138/120 6/74/121 5/137/120
f 38/5/120 81/138/120 3/3/120
f 85/9/5 67/73/5 10/10/5
f 69/139/122 9/71/123 71/140/124
f 9/71/123 68/11/125 71/140/124
f 68/11/125 10/10/6 70/141/6
f 68/11/125 70/141/6 39/12/6
f 11/142/126 69/139/122 71/140/124
f 12/14/127 71/140/124 68/11/125
f 68/11/125 39/12/6 12/14/127
f 72/143/128 11/142/129 71/140/130
f 72/143/128 71/140/130 74/16/9
f 71/140/130 12/14/10 74/16/9
f 74/16/9 13/144/131 72/143/128
f 83/145/131 14/146/131 74/16/9
f 40/15/8 83/145/131 74/16/9
f 73/147/132 40/15/8 12/14/10
f 75/148/11 13/144/11 74/16/11
f 74/16/11 14/146/11 76/149/11
f 41/17/11 16/150/11 77/18/11
f 74/16/11 76/149/11 41/17/11
f 15/68/11 75/148/11 77/18/11
f 75/148/11 74/16/11 77/18/11
f 44/64/13 43/20/13 20/23/13
f 43/20/13 84/151/133 21/22/13
f 84/151/133 19/152/134 21/22/13
f 48/27/15 25/153/15 49/28/15
f 52/30/16 27/154/16 29/31/16
f 60/33/17 56/155/18 31/34/18
f 34/39/22 32/47/22 59/37/20
f 32/47/22 33/46/22 59/37/20
f 35/38/23 37/156/135 36/40/24
f 36/40/25 37/156/25 2/41/25
f 36/157/28 1/158/28 7/159/28
f 1/158/28 3/160/28 7/159/28
f 3/160/28 5/161/28 7/159/28
f 7/159/28 66/162/28 75/163/28
f 66/162/28 9/164/28 13/165/28
f 13/165/28 9/164/28 69/166/28
f 69/166/28 11/167/28 72/168/28
f 13/165/28 69/166/28 72/168/28
f 32/169/28 34/170/28 36/157/28
f 55/171/28 30/172/136 32/169/28
f 53/173/28 28/174/28 55/171/28
f 50/175/28 26/176/28 53/173/28
f 22/177/27 47/178/27 45/179/27
f 47/178/27 24/44/28 20/43/27
f 45/179/27 47/178/27 20/43/27
f 24/44/28 50/175/28 7/159/28
f 50/175/28 53/173/28 32/169/28
f 53/173/28 55/171/28 32/169/28
f 32/169/28 36/157/28 50/175/28
f 36/157/28 7/159/28 50/175/28
f 13/165/28 75/163/28 66/162/28
f 75/163/28 15/45/27 7/159/28
f 15/45/27 78/180/27 20/43/27
f 78/180/27 17/181/28 42/182/27
f 44/183/27 78/180/27 42/182/27
f 42/182/27 18/184/27 44/183/27
f 44/183/27 20/43/27 78/180/27
f 24/44/28 7/159/28 15/45/27
f 32/47/31 30/48/31 57/35/29
f 57/35/29 58/36/31 33/46/30
f 60/33/32 57/35/32 30/48/33
f 54/32/34 60/33/137 55/49/34
f 29/31/35 56/155/35 60/33/36
f 53/51/37 52/30/138 54/32/37
f 50/57/41 61/61/42 51/54/42
f 49/28/43 61/61/43 50/57/44
f 61/61/46 49/28/46 80/59/45
f 49/28/46 25/153/45 80/59/45
f 62/29/47 49/28/47 24/58/48
f 46/25/49 62/29/49 47/62/50
f 23/63/51 48/27/139 62/29/52
f 45/24/53 20/23/140 46/25/53
f 20/23/140 21/22/53 46/25/53
f 42/19/55 17/67/141 77/65/55
f 77/65/55 16/185/55 84/151/55
f 16/185/55 79/186/55 84/151/55
f 79/186/55 19/152/55 84/151/55
f 84/151/55 43/20/55 77/65/55
f 66/70/57 85/9/58 68/11/58
f 7/72/59 65/6/59 85/9/59
f 65/6/60 8/8/60 67/73/60
f 7/72/142 5/137/143 65/6/63
f 5/137/143 6/74/61 65/6/63
f 4/76/65 2/93/78 87/77/66
f 87/77/66 81/187/144 38/78/65
f 6/81/68 81/187/144 87/77/66
f 87/77/66 109/89/74 108/80/67
f 6/81/68 67/82/69 8/83/70
f 10/188/145 67/82/69 108/80/67
f 108/80/67 14/88/73 40/189/72
f 14/88/73 83/190/72 40/189/72
f 70/87/72 10/188/145 108/80/67
f 39/191/72 70/87/72 12/86/71
f 70/87/72 108/80/67 73/85/71
f 108/80/67 40/189/72 73/85/71
f 86/90/75 109/89/74 87/77/66
f 87/77/66 2/93/78 89/92/77
f 91/96/81 35/95/80 101/97/82
f 102/98/83 101/97/82 117/99/84
f 103/100/85 117/99/84 98/101/86
f 118/102/87 98/101/86 99/103/88
f 95/104/89 99/103/88 80/105/90
f 90/110/94 25/106/91 21/109/93
f 25/106/91 48/107/92 21/109/93
f 112/113/97 93/111/95 21/109/93
f 21/109/93 19/192/146 79/112/96
f 113/117/101 16/115/99 41/193/147
f 41/193/147 76/116/100 113/117/101
f 114/118/102 14/88/73 86/90/75
f 88/91/76 89/92/77 110/120/104
f 89/92/77 37/94/79 105/121/104
f 105/121/104 91/96/81 102/98/83
f 104/122/105 102/98/83 103/100/85
f 119/123/106 103/100/85 118/102/87
f 93/111/95 92/124/107 118/102/87
f 118/102/87 95/104/89 93/111/95
f 115/126/109 93/111/95 112/113/97
f 112/113/97 116/114/98 113/117/101
f 114/118/102 107/119/103 106/127/110
f 112/113/97 113/117/101 115/126/109
f 113/117/101 114/118/102 115/126/109
f 92/124/107 94/125/108 119/123/106
f 94/125/108 115/126/109 106/127/110
f 119/123/106 94/125/108 106/127/110
f 114/118/102 106/127/110 115/126/109
f 104/122/105 106/127/110 110/120/104
f 96/128/111 99/103/88 98/101/86
f 100/129/112 98/101/86 117/99/84
f 35/95/80 58/134/117 56/131/114
f 35/95/80 59/194/148 33/136/119
l 93 121
